<?xml version="1.0" standalone="no"?>
<!DOCTYPE svg PUBLIC "-//W3C//DTD SVG 20010904//EN"
 "http://www.w3.org/TR/2001/REC-SVG-20010904/DTD/svg10.dtd">
<svg version="1.0" xmlns="http://www.w3.org/2000/svg"
 width="500.000000pt" height="500.000000pt" viewBox="0 0 500.000000 500.000000"
 preserveAspectRatio="xMidYMid meet">

<g transform="translate(0.000000,500.000000) scale(0.100000,-0.100000)"
fill="#000000" stroke="none">
<path d="M2746 4110 c-98 -38 -146 -113 -146 -227 0 -63 3 -76 33 -119 62 -92
149 -128 270 -110 65 10 82 25 66 59 -13 30 -21 32 -50 16 -29 -15 -112 -13
-145 4 -65 34 -110 114 -99 176 15 82 92 151 170 151 41 0 107 -32 132 -64 26
-32 34 -32 61 -3 l22 23 -38 37 c-43 42 -131 77 -189 77 -21 -1 -60 -10 -87
-20z"/>
<path d="M3200 3993 c-13 -21 -31 -51 -40 -68 -10 -16 -56 -94 -104 -172 -47
-78 -86 -144 -86 -147 0 -3 14 -12 30 -21 l30 -16 40 63 c80 127 101 148 151
148 45 0 98 -48 99 -88 0 -13 -27 -69 -60 -124 l-60 -102 30 -19 c17 -11 33
-17 37 -14 3 3 34 55 69 114 52 88 64 116 64 151 0 54 -11 75 -55 102 -49 31
-92 41 -122 29 -14 -5 -28 -8 -30 -6 -2 3 19 42 47 88 l51 84 -22 17 c-31 26
-44 22 -69 -19z"/>
<path d="M1905 3941 c-52 -23 -95 -74 -95 -112 0 -18 11 -41 29 -61 29 -32 31
-33 106 -31 84 3 115 -7 115 -37 0 -32 -45 -54 -112 -54 l-59 -1 3 -30 c3 -30
4 -30 61 -29 72 2 125 25 155 68 29 42 28 88 -2 123 -23 27 -28 28 -113 28
-95 0 -113 6 -113 35 0 27 39 50 99 57 48 5 51 7 51 34 0 27 -2 29 -42 29 -24
0 -61 -9 -83 -19z"/>
<path d="M1632 3782 c-46 -5 -118 -75 -127 -124 l-7 -38 -18 22 c-17 21 -18
21 -44 5 -14 -10 -26 -22 -26 -28 0 -6 26 -43 58 -82 31 -40 71 -89 87 -111
17 -21 50 -63 73 -94 24 -31 52 -67 63 -80 l19 -24 29 24 29 25 -58 74 -58 74
43 0 c45 0 117 41 137 79 35 65 25 151 -23 209 -47 57 -101 78 -177 69z m104
-105 c28 -26 37 -42 41 -78 5 -41 2 -50 -26 -81 -17 -20 -43 -39 -57 -42 -66
-17 -149 53 -149 126 0 29 8 45 35 73 28 29 41 35 77 35 35 0 50 -6 79 -33z"/>
<path d="M2331 3751 c-25 -25 -17 -59 15 -67 47 -12 72 37 36 69 -23 21 -28
21 -51 -2z"/>
<path d="M3456 3586 c-101 -37 -151 -147 -111 -244 27 -63 104 -122 160 -122
21 0 25 5 25 30 0 26 -4 30 -26 30 -17 0 -40 14 -65 39 -32 32 -39 46 -39 78
0 22 6 47 13 57 11 16 21 7 101 -83 49 -56 92 -101 97 -101 5 0 27 23 49 51
34 43 40 58 40 98 0 53 -34 111 -87 149 -39 27 -108 35 -157 18z m145 -87 c39
-42 46 -73 25 -116 l-17 -35 -69 73 c-89 95 -90 107 -7 108 31 1 45 -5 68 -30z"/>
<path d="M1329 3460 c-71 -12 -139 -87 -154 -171 -14 -75 63 -180 140 -195 20
-3 57 -4 81 -1 79 8 153 102 154 192 0 108 -108 194 -221 175z m97 -92 c65
-45 74 -120 20 -174 -54 -54 -126 -45 -177 20 -36 46 -32 97 11 141 42 43 95
48 146 13z"/>
<path d="M3765 3285 c-22 -12 -91 -50 -152 -84 l-113 -62 15 -30 c9 -16 19
-29 23 -29 4 0 32 14 62 30 100 55 122 62 165 57 28 -4 47 -14 65 -35 24 -29
26 -29 53 -16 15 8 27 18 27 23 0 13 -44 49 -80 65 -19 8 -30 15 -24 16 5 0
18 6 29 13 17 13 17 15 -1 45 -21 37 -17 37 -69 7z"/>
<path d="M993 3130 c-18 -10 -40 -31 -50 -46 -23 -35 -92 -247 -84 -256 3 -4
62 -23 131 -44 69 -20 168 -50 220 -65 52 -16 96 -29 97 -29 2 0 23 63 23 71
0 4 -24 13 -54 20 -83 18 -82 15 -57 117 19 76 21 96 11 132 -27 98 -152 152
-237 100z m110 -63 c18 -8 38 -22 46 -31 19 -22 17 -93 -4 -156 -19 -58 -15
-57 -141 -19 l-61 19 17 64 c23 82 34 102 68 120 34 19 36 19 75 3z"/>
<path d="M3794 3006 c-73 -24 -146 -47 -163 -51 -34 -7 -38 -20 -19 -60 8 -18
17 -24 27 -19 15 6 49 17 137 44 64 21 122 1 148 -49 12 -23 20 -27 41 -23 15
2 29 11 32 19 6 16 -53 83 -74 83 -7 0 -13 5 -13 10 0 6 9 10 20 10 11 0 23 7
27 16 6 17 -12 64 -24 64 -5 -1 -67 -20 -139 -44z"/>
<path d="M3835 2740 c-107 -60 -167 -87 -180 -83 -37 10 -55 34 -55 75 0 32
-4 40 -26 49 -15 5 -29 7 -32 4 -14 -13 -13 -104 1 -131 19 -38 35 -45 187
-89 69 -21 167 -50 219 -66 51 -17 95 -28 96 -27 1 2 0 19 -2 38 -5 36 -5 36
-86 58 -45 12 -104 27 -132 33 -27 7 -53 15 -57 18 -4 4 51 36 122 71 l130 64
0 38 c0 24 -5 38 -12 37 -7 -1 -85 -41 -173 -89z"/>
<path d="M940 2476 c0 -32 2 -34 58 -49 31 -8 92 -23 135 -33 43 -9 80 -21 83
-25 2 -4 -17 -19 -43 -32 -197 -101 -198 -102 -201 -141 -2 -22 1 -36 8 -36 6
0 53 23 103 51 51 29 123 69 161 90 38 22 74 39 81 39 7 0 24 -10 39 -21 22
-17 27 -28 24 -57 -2 -31 1 -37 26 -45 36 -12 46 2 46 65 0 39 -5 52 -31 77
-16 17 -49 35 -72 41 -43 11 -154 41 -312 85 -49 14 -93 25 -97 25 -4 0 -8
-15 -8 -34z"/>
<path d="M3665 2288 c-18 -50 -12 -59 53 -79 34 -11 62 -26 62 -33 0 -7 -9
-39 -21 -72 -14 -42 -19 -76 -17 -117 4 -49 9 -62 38 -92 54 -56 147 -72 207
-35 39 23 71 85 107 201 14 48 26 89 26 92 0 7 -409 140 -448 147 -1 0 -5 -6
-7 -12z m283 -155 c53 -17 82 -32 82 -41 0 -30 -43 -133 -66 -157 -26 -29 -62
-32 -104 -10 -53 27 -62 73 -34 161 9 27 17 55 20 62 5 16 7 16 102 -15z"/>
<path d="M1018 2137 c-16 -6 -28 -16 -28 -22 0 -16 62 -72 85 -78 17 -3 15 -6
-12 -17 -18 -6 -33 -13 -33 -14 0 -18 25 -66 33 -66 7 0 64 19 127 41 63 23
136 47 162 55 46 15 46 16 36 45 -5 16 -13 31 -17 33 -4 3 -47 -9 -96 -25
-116 -37 -148 -37 -186 0 -16 16 -29 37 -29 45 0 18 -4 18 -42 3z"/>
<path d="M1370 1870 c-107 -63 -146 -66 -196 -16 -34 34 -38 34 -83 0 -2 -2 4
-15 13 -28 9 -15 33 -30 57 -36 l41 -11 -23 -16 c-13 -9 -25 -17 -27 -19 -4
-2 8 -25 26 -52 7 -10 47 9 164 75 l155 88 -15 33 c-9 17 -18 32 -21 32 -3 0
-44 -23 -91 -50z"/>
<path d="M3558 1900 c-44 -13 -86 -49 -114 -96 -22 -38 -26 -54 -22 -103 5
-72 37 -119 101 -150 78 -38 154 -23 214 40 39 41 53 77 53 133 0 63 -16 100
-61 136 -58 46 -110 59 -171 40z m88 -76 c51 -24 74 -59 74 -111 0 -82 -84
-138 -153 -102 -70 36 -98 98 -71 155 18 38 66 74 97 74 11 0 34 -7 53 -16z"/>
<path d="M1470 1751 c0 -24 5 -29 31 -35 17 -3 46 -21 65 -40 28 -28 34 -41
34 -77 0 -84 -11 -82 -112 25 -104 109 -109 111 -155 43 -40 -61 -40 -131 3
-183 57 -71 111 -94 187 -80 43 8 106 57 129 99 21 39 23 106 4 151 -25 61
-111 126 -166 126 -15 0 -20 -7 -20 -29z m4 -187 c78 -83 78 -96 0 -98 -41 -1
-49 3 -74 33 -16 18 -31 44 -34 57 -6 24 18 85 32 83 4 -1 38 -35 76 -75z"/>
<path d="M3228 1747 l-28 -22 55 -70 c30 -38 55 -73 55 -77 0 -4 -13 -5 -29
-2 -43 9 -113 -28 -147 -77 -53 -78 -22 -195 69 -256 37 -26 122 -32 160 -12
42 22 87 73 93 106 6 31 8 33 23 18 22 -19 28 -19 56 4 l24 18 -127 167 c-70
92 -135 181 -145 197 -23 35 -25 35 -59 6z m143 -253 c84 -80 41 -204 -70
-204 -78 0 -143 99 -108 166 16 31 43 58 67 67 29 12 83 -3 111 -29z"/>
<path d="M1672 1460 c-34 -61 -65 -123 -68 -138 -16 -79 73 -159 166 -150 28
3 50 4 50 2 0 -2 -22 -41 -49 -86 l-50 -83 22 -17 c12 -10 27 -18 33 -18 11 0
60 20 73 -46 34 -47 34 -97 -54 -53 -92 -94 -134 -132 -134 -52 0 -104 45
-104 90 0 23 10 44 85 174 l28 49 -22 19 c-13 10 -28 18 -35 18 -6 0 -39 -50
-74 -110z"/>
<path d="M2914 1401 c-47 -21 -84 -64 -84 -96 0 -35 20 -83 38 -91 9 -5 57
-10 106 -14 70 -4 91 -9 100 -22 18 -30 -22 -60 -87 -66 -52 -4 -55 -6 -59
-34 l-5 -30 63 4 c139 9 210 117 127 194 -23 21 -35 24 -107 24 -85 0 -106 8
-106 43 0 25 57 47 125 47 56 0 56 0 53 28 -3 26 -6 27 -63 30 -42 1 -72 -4
-101 -17z"/>
<path d="M2073 1343 c-45 -16 -51 -28 -30 -58 12 -16 18 -16 47 -7 83 29 175
3 218 -62 86 -127 -18 -285 -173 -262 -36 6 -56 17 -85 46 l-39 39 -28 -24
-28 -25 44 -40 c105 -96 268 -89 360 16 43 49 53 77 54 154 1 75 -16 115 -71
173 -60 62 -175 84 -269 50z"/>
<path d="M2592 1333 c-42 -15 -32 -83 13 -83 26 0 50 32 41 55 -6 18 -37 34
-54 28z"/>
</g>
</svg>
