<?xml version="1.0" standalone="no"?>
<!DOCTYPE svg PUBLIC "-//W3C//DTD SVG 20010904//EN"
 "http://www.w3.org/TR/2001/REC-SVG-20010904/DTD/svg10.dtd">
<svg version="1.0" xmlns="http://www.w3.org/2000/svg"
 width="500.000000pt" height="500.000000pt" viewBox="0 0 500.000000 500.000000"
 preserveAspectRatio="xMidYMid meet">

<g transform="translate(0.000000,500.000000) scale(0.100000,-0.100000)"
fill="#000000" stroke="none">
<path d="M2510 3648 c-91 -48 -93 -205 -3 -252 43 -21 95 -29 126 -17 45 17
31 28 -32 23 -56 -4 -61 -3 -97 31 -36 33 -39 39 -38 88 0 47 4 55 37 85 48
44 103 47 159 8 46 -33 62 -24 25 13 -22 22 -37 28 -89 30 -39 3 -72 -1 -88
-9z"/>
<path d="M2813 3573 c-60 -87 -134 -223 -128 -234 5 -7 19 6 37 37 59 96 81
108 138 79 37 -19 48 -57 26 -90 -40 -61 -66 -115 -55 -115 23 0 89 112 89
150 0 49 -58 97 -106 87 -13 -2 -24 -3 -24 -1 0 2 14 25 30 51 17 26 30 51 30
55 0 17 -19 7 -37 -19z"/>
<path d="M1981 3543 c-46 -23 -59 -54 -37 -89 17 -25 20 -26 85 -19 57 6 69 4
74 -9 4 -9 4 -23 1 -31 -7 -18 -88 -49 -109 -41 -11 4 -15 2 -12 -6 6 -17 69
-13 107 7 32 17 46 50 35 85 -6 20 -13 22 -73 20 -91 -4 -92 -3 -92 26 0 19 8
28 35 40 19 7 44 14 55 14 11 0 20 5 20 10 0 15 -51 11 -89 -7z"/>
<path d="M1782 3428 c-17 -13 -37 -37 -44 -55 -10 -28 -13 -30 -23 -16 -9 12
-14 13 -19 4 -4 -7 12 -35 38 -69 25 -31 65 -82 89 -114 33 -42 47 -54 58 -47
9 6 10 12 3 17 -5 4 -23 24 -38 45 l-28 37 32 0 c47 0 100 55 100 105 0 30 -8
45 -39 76 -46 46 -80 50 -129 17z m113 -33 c51 -50 17 -145 -53 -145 -33 0
-79 40 -88 75 -6 25 18 80 38 88 34 14 80 6 103 -18z"/>
<path d="M2260 3420 c0 -11 6 -20 13 -20 19 0 27 10 20 26 -8 21 -33 17 -33
-6z"/>
<path d="M2948 3306 c-59 -41 -63 -119 -10 -168 34 -32 72 -45 72 -25 0 8 -11
18 -25 21 -49 13 -78 96 -45 130 5 5 36 -21 70 -58 34 -36 67 -63 72 -60 6 4
17 22 25 41 40 98 -70 181 -159 119z m109 -15 c17 -11 33 -30 35 -43 4 -25
-10 -78 -20 -77 -10 1 -102 108 -102 118 0 9 19 17 45 20 6 0 24 -8 42 -18z"/>
<path d="M1574 3216 c-26 -26 -34 -42 -34 -70 0 -105 133 -153 195 -71 37 48
34 98 -9 141 -28 28 -42 34 -76 34 -34 0 -48 -6 -76 -34z m128 -7 c9 -5 22
-24 28 -43 26 -80 -65 -139 -133 -86 -33 26 -41 63 -22 101 24 46 71 56 127
28z"/>
<path d="M3110 3097 c-99 -55 -101 -57 -95 -68 4 -5 36 7 72 26 36 19 72 35
80 35 8 0 25 -11 39 -25 14 -14 30 -23 35 -19 14 8 -29 54 -50 54 -14 1 -13 2
2 11 20 12 23 29 5 28 -7 0 -47 -19 -88 -42z"/>
<path d="M1420 3037 c-45 -22 -106 -187 -69 -187 8 0 56 -13 106 -29 128 -41
156 -46 151 -30 -2 7 -18 17 -35 23 -18 6 -34 14 -38 17 -3 4 2 34 11 67 21
76 9 117 -42 138 -41 17 -52 17 -84 1z m81 -28 c32 -17 39 -51 24 -109 -8 -29
-16 -54 -19 -57 -6 -6 -77 10 -120 27 l-26 9 21 58 c12 32 28 64 37 71 19 15
57 16 83 1z"/>
<path d="M3165 2946 c-62 -21 -94 -36 -85 -40 9 -3 38 0 65 9 70 21 92 19 121
-11 14 -14 31 -23 37 -21 7 2 -1 17 -19 35 -23 22 -28 32 -18 36 15 6 20 26 7
26 -5 -1 -53 -16 -108 -34z"/>
<path d="M3230 2796 c-41 -23 -85 -49 -98 -57 -33 -21 -77 5 -78 46 -1 41 -18
48 -22 9 -4 -41 21 -68 83 -89 28 -9 88 -30 134 -46 97 -33 94 -33 89 -17 -2
6 -46 26 -98 43 l-93 33 41 26 c23 14 62 36 87 48 25 12 45 28 45 35 0 19 -7
16 -90 -31z"/>
<path d="M1380 2641 c0 -16 25 -28 114 -55 l89 -27 -87 -51 c-47 -27 -86 -56
-86 -63 0 -9 21 -2 63 22 140 81 141 81 164 73 28 -11 44 -41 36 -70 -4 -17
-2 -21 8 -18 8 2 15 18 17 35 4 45 -27 69 -128 99 -47 14 -109 34 -137 45 -29
10 -53 15 -53 10z"/>
<path d="M3110 2487 c0 -9 14 -17 35 -21 45 -9 48 -16 30 -66 -31 -88 -14
-149 49 -170 37 -12 71 -3 98 26 16 18 58 127 58 149 0 9 -156 65 -257 93 -7
2 -13 -3 -13 -11z m185 -73 c30 -8 55 -20 55 -26 0 -32 -26 -90 -51 -114 -25
-24 -32 -26 -61 -18 -18 6 -39 21 -47 36 -13 23 -13 32 4 87 13 44 22 60 32
57 8 -3 38 -13 68 -22z"/>
<path d="M1420 2387 c0 -17 32 -47 51 -47 11 -1 10 -4 -3 -14 -10 -7 -18 -19
-18 -26 0 -8 6 -10 18 -5 9 4 53 20 97 36 47 16 81 34 83 43 3 13 -9 11 -64
-10 -76 -28 -106 -26 -130 11 -18 27 -34 33 -34 12z"/>
<path d="M1645 2225 c-70 -40 -83 -42 -118 -15 -14 11 -30 20 -37 20 -21 0 -5
-25 28 -41 23 -12 28 -19 20 -27 -21 -21 0 -24 39 -5 34 17 131 71 142 80 3 2
0 7 -5 13 -5 5 -32 -5 -69 -25z"/>
<path d="M3010 2231 c-40 -21 -66 -75 -56 -115 16 -66 92 -103 156 -76 80 33
78 155 -4 194 -43 20 -54 20 -96 -3z m111 -40 c17 -18 29 -40 29 -56 0 -35
-50 -85 -85 -85 -32 0 -95 58 -95 88 0 11 12 34 26 51 35 42 84 43 125 2z"/>
<path d="M1720 2165 c0 -8 9 -15 19 -15 25 0 71 -55 71 -84 0 -12 -6 -30 -13
-39 -11 -16 -19 -11 -77 48 l-64 65 -18 -28 c-72 -108 83 -220 167 -120 30 35
33 91 8 128 -9 14 -17 26 -18 27 0 1 -18 9 -38 18 -33 14 -37 14 -37 0z m4
-120 l47 -55 -25 -11 c-54 -25 -117 35 -102 96 10 37 27 31 80 -30z"/>
<path d="M2835 2149 c-4 -6 7 -28 24 -49 37 -47 38 -50 6 -50 -83 0 -130 -85
-88 -159 35 -59 115 -70 164 -22 16 16 29 40 29 52 0 21 1 21 19 5 32 -29 35
1 4 38 -15 19 -54 70 -86 115 -33 44 -60 81 -62 81 -2 0 -7 -5 -10 -11z m102
-158 c30 -45 29 -67 -6 -102 -47 -46 -95 -38 -135 23 -36 55 9 121 79 116 32
-2 44 -9 62 -37z"/>
<path d="M1867 1998 c-45 -76 -58 -114 -47 -142 12 -34 55 -60 95 -59 l32 1
-29 -53 c-34 -63 -22 -82 16 -25 14 22 26 42 26 45 0 3 12 24 26 46 50 79 76
131 69 137 -4 4 -15 -4 -24 -18 -56 -84 -77 -105 -112 -108 -40 -3 -79 26 -79
59 0 12 16 48 37 80 26 42 33 63 26 70 -8 8 -18 -2 -36 -33z"/>
<path d="M2646 1945 c-68 -24 -92 -69 -56 -105 20 -20 47 -21 111 -4 17 5 49
-19 49 -36 0 -17 -54 -50 -82 -50 -17 0 -28 -5 -26 -11 2 -6 7 -10 11 -10 4 1
18 1 31 1 37 0 86 46 86 81 0 38 -25 48 -107 41 -63 -4 -63 -4 -63 22 0 21 7
30 35 42 19 7 46 14 61 14 16 0 24 5 22 13 -6 17 -28 18 -72 2z"/>
<path d="M2093 1903 c-30 -12 -9 -19 45 -15 53 4 59 2 97 -31 37 -32 40 -39
40 -87 0 -47 -3 -55 -37 -86 -49 -44 -113 -48 -164 -9 -18 14 -35 21 -38 17
-17 -28 88 -77 142 -67 75 14 122 70 122 145 0 86 -57 141 -145 139 -27 0 -56
-3 -62 -6z"/>
<path d="M2412 1873 c2 -10 10 -18 18 -18 8 0 16 8 18 18 2 12 -3 17 -18 17
-15 0 -20 -5 -18 -17z"/>
</g>
</svg>
